<svg id="レイヤー_1" data-name="レイヤー 1" xmlns="http://www.w3.org/2000/svg" viewBox="0 0 196.87 305.15"><defs><style>.cls-1{fill:#2b3d4e;}.cls-2,.cls-3{font-size:38px;}.cls-2{fill:#d2a127;letter-spacing:-0.02em;}.cls-2,.cls-3,.cls-7{font-family:SourceHanSans-Heavy-90ms-RKSJ-H, Source Han Sans;}.cls-3,.cls-7{fill:#231815;}.cls-3{letter-spacing:-0.01em;}.cls-4{letter-spacing:-0.02em;}.cls-5{letter-spacing:-0.04em;}.cls-6{fill:none;}.cls-7{font-size:34px;}</style></defs><title>文字アリロゴ</title><path class="cls-1" d="M182.8,182a18.72,18.72,0,0,0-9.18-15.33l0,0-.29-.14-.12-.07-42.82-17.24-6.57-6.06a72.7,72.7,0,0,0,14.37-19c.57-1.08,1-2.2,1.55-3.3,4.93-3.33,8.27-6.42,10.44-9.4a14.69,14.69,0,0,0,3.16-8.6,12.07,12.07,0,0,0-3.75-8.51,17.06,17.06,0,0,0-3.16-2.47,43.26,43.26,0,0,0-1.76-10.32c-.79-7.94-2.83-16.43-7.44-23.79a35.5,35.5,0,0,0-13.57-12.68c-6-3.16-13.39-5-22.49-5C83.39,40.08,72,47,65.63,56.64c-5.8,8.72-7.61,19.23-7.91,28.54a43,43,0,0,0-.8,6.41c-.1,0-.2,0-.29.06A15.24,15.24,0,0,0,53,94.38a12,12,0,0,0-3.75,8.51,14.61,14.61,0,0,0,3.15,8.6c2.18,3,5.51,6.07,10.45,9.4a2.81,2.81,0,0,0,.84.36,80.77,80.77,0,0,0,7.13,12.05,66.17,66.17,0,0,0,8.42,9.56l-6.43,6.43L30.12,166.47l-.38.2-.07,0A18.77,18.77,0,0,0,20.49,182l0,.37-4,62.59H186.84ZM45.23,239H22.87L26.52,182l0,.38c.29-4.64,2.74-8.62,6.09-10.45l.06,0L47.38,166ZM70.45,121.35a70.16,70.16,0,0,1-4.73-11.22,2.59,2.59,0,0,0,.24-.6,72.6,72.6,0,0,0,1.68-13.44,15.58,15.58,0,0,0-.91-5.92h0a7.08,7.08,0,0,1-.48-2.72,17.36,17.36,0,0,1,3-9,13.55,13.55,0,0,1,2.75-3.11,3.41,3.41,0,0,1,1.73-.85l.51.42a15.4,15.4,0,0,0,7,4.9A49.89,49.89,0,0,0,93.8,82.51c3.8.38,6.75.4,7.28.4h.13A77.46,77.46,0,0,0,112.52,82,41.7,41.7,0,0,0,121,79.8a15.43,15.43,0,0,0,7-4.9c.48-.58.41-.4.49-.44a3,3,0,0,1,1.62.85,16.21,16.21,0,0,1,3.9,5.45,18,18,0,0,1,1.78,7.2,8.47,8.47,0,0,1-.34,2.49h0a13.91,13.91,0,0,0-.5,4.09c0,6.43,2.39,15,2.41,15.12a2.57,2.57,0,0,0,.25.53,72.85,72.85,0,0,1-10,19.59,55,55,0,0,1-12.73,12.9c-4.51,3.12-9.07,4.82-13.22,4.81s-8.71-1.69-13.22-4.81C81.67,138,75.16,130.2,70.45,121.35Zm31.19,108.44L77.91,152.7l6-5.95c.38.28.74.61,1.13.88,5.21,3.6,10.86,5.87,16.65,5.88s11.44-2.28,16.64-5.88c.27-.19.51-.44.77-.63l6.23,5.75ZM157.31,239l-2.17-73.29,15.51,6.25.06,0c3.35,1.83,5.79,5.81,6.09,10.45l0-.5L180.42,239ZM112.42,156.9l-10.14,3.65L92.14,156.9a2.26,2.26,0,0,0-3,2.51l1.74,10a2.25,2.25,0,0,0,3.47,1.49l7.91-5.27,7.9,5.27a2.26,2.26,0,0,0,3.48-1.49l1.74-10a2.26,2.26,0,0,0-3-2.51Z"/><text></text><text class="cls-2" transform="translate(81.58 123.44)">な</text><text class="cls-3" transform="translate(42.47 296.48)">あ<tspan class="cls-4" x="37.54" y="0">い</tspan><tspan class="cls-5" x="74.63" y="0">つ</tspan></text><path class="cls-6" d="M0,68.14c0-37,34.85-67,77.91-67"/><text class="cls-7" transform="matrix(0.72, -0.69, 0.69, 0.72, 31.98, 66.18)">お</text><text class="cls-7" transform="matrix(0.93, -0.38, 0.38, 0.93, 53.81, 44.31)">せ</text><text class="cls-7" transform="translate(78.64 32.89) rotate(-2.42)">っ</text><text class="cls-7" transform="translate(108.11 30.71) rotate(19.91)">か</text><text class="cls-7" transform="matrix(0.74, 0.67, -0.67, 0.74, 137.91, 41.25)">い</text></svg>