<svg id="レイヤー_1" data-name="レイヤー 1" xmlns="http://www.w3.org/2000/svg" viewBox="0 0 170.39 204.84"><defs><style>.cls-1{fill:#2b3d4e;}.cls-2{font-size:38px;fill:#d2a127;font-family:SourceHanSans-Heavy-90ms-RKSJ-H, Source Han Sans;letter-spacing:-0.02em;}</style></defs><title>文字なしロゴ </title><path class="cls-1" d="M166.35,141.88a18.74,18.74,0,0,0-9.18-15.33l0,0-.29-.14-.13-.07-42.81-17.24L107.34,103a72.92,72.92,0,0,0,14.37-19c.57-1.08,1-2.2,1.54-3.3,4.94-3.33,8.27-6.42,10.45-9.4a14.61,14.61,0,0,0,3.15-8.6,12,12,0,0,0-3.75-8.51,16.74,16.74,0,0,0-3.16-2.47,42.28,42.28,0,0,0-1.76-10.32c-.78-7.94-2.82-16.43-7.43-23.79A35.53,35.53,0,0,0,107.17,5c-6-3.16-13.39-5-22.48-5C66.93-.07,55.52,6.87,49.18,16.49c-5.8,8.72-7.62,19.22-7.91,28.54a43.06,43.06,0,0,0-.81,6.4c-.09,0-.19,0-.28.07a15.4,15.4,0,0,0-3.64,2.73,12.11,12.11,0,0,0-3.75,8.51A14.69,14.69,0,0,0,36,71.34c2.17,3,5.51,6.07,10.44,9.4a2.86,2.86,0,0,0,.85.36,80.43,80.43,0,0,0,7.13,12.05,66.65,66.65,0,0,0,8.41,9.56l-6.43,6.43L13.67,126.32l-.39.2-.06,0A18.72,18.72,0,0,0,4,141.88l0,.37L0,204.84H170.39ZM28.77,198.82H6.42l3.65-56.93,0,.38c.29-4.64,2.73-8.62,6.09-10.45l.05,0,14.74-5.93ZM54,81.2A71.08,71.08,0,0,1,49.26,70a2.63,2.63,0,0,0,.25-.6,74.55,74.55,0,0,0,1.68-13.44A15.78,15.78,0,0,0,50.28,50h0a7.07,7.07,0,0,1-.49-2.72,17.54,17.54,0,0,1,3.05-9,13.34,13.34,0,0,1,2.76-3.11,3.38,3.38,0,0,1,1.73-.85l.5.41a15.42,15.42,0,0,0,7,4.91,49.89,49.89,0,0,0,12.51,2.71c3.79.38,6.74.4,7.27.4h.13a77.37,77.37,0,0,0,11.31-.93,41.79,41.79,0,0,0,8.48-2.18,15.34,15.34,0,0,0,7-4.91c.49-.57.42-.39.5-.43a3,3,0,0,1,1.61.85,16.08,16.08,0,0,1,3.9,5.45,17.65,17.65,0,0,1,1.78,7.2A8.83,8.83,0,0,1,119,50.3h0a14.37,14.37,0,0,0-.51,4.1c0,6.43,2.4,15,2.42,15.12a3.59,3.59,0,0,0,.24.53,72.56,72.56,0,0,1-10,19.59,54.79,54.79,0,0,1-12.73,12.9c-4.51,3.12-9.06,4.82-13.22,4.81s-8.71-1.69-13.22-4.81C65.22,97.86,58.7,90.05,54,81.2ZM85.18,189.63,61.45,112.55l6-6c.39.28.75.61,1.14.88,5.21,3.59,10.85,5.87,16.64,5.88s11.45-2.29,16.65-5.88c.26-.19.51-.44.77-.63l6.23,5.75Zm55.67,9.19-2.17-73.28,15.51,6.25.06,0c3.35,1.83,5.8,5.81,6.09,10.45l0-.5,3.66,57ZM96,116.75,85.82,120.4l-10.13-3.65a2.26,2.26,0,0,0-3,2.51l1.74,10a2.25,2.25,0,0,0,3.48,1.49l7.9-5.27,7.91,5.27a2.25,2.25,0,0,0,3.47-1.49l1.75-10a2.23,2.23,0,0,0-.77-2.11A2.26,2.26,0,0,0,96,116.75Z"/><text class="cls-2" transform="translate(65.13 83.29)">な</text></svg>